# xmcd
#
# Track frame offsets: 
#        150
#        12618
#        26560
#        36854
#        51089
#        66227
#        80962
#        92239
#        105849
#        119768
#        134634
#        149816
#        164517
#        179612
#        194453
#        207990
#        222863
#        237704
#        249801
#        264500
#
# Disc length: 3727 seconds
#
# Revision: 3
# Processed by: cddbd v1.5.2PL0 Copyright (c) Steve Scherf et al.
# Submitted via: ExactAudioCopy v1.3
#
DISCID=3e0e8d14
DTITLE=Peggy Lee - 2004 - Peggy Lee Box 01 - The Way You Look Tonight 
DTITLE=(Documents)
DYEAR=2004
DGENRE=Vocal
TTITLE0=Shady Lady Bird
TTITLE1=How Deep is the Ocean
TTITLE2=Let's  Do It
TTITLE3=Somebody Else Is Talking My Place
TTITLE4=Somebody Nobody Loves
TTITLE5=How Long Has This Been Going On?
TTITLE6=That Did It, Marie
TTITLE7=Winter Weather
TTITLE8=Ev'rything I Love
TTITLE9=Not Mine
TTITLE10=Not A Care In The World
TTITLE11=Blues In The Night
TTITLE12=Where Or When
TTITLE13=The Way You Look Tonight
TTITLE14=I Threw A Kiss In The Ocean
TTITLE15=We'll Meet Again
TTITLE16=Full Moon
TTITLE17=There Won't Be A Shortage Of Love
TTITLE18=You're Easy To Dance With
TTITLE19=All I Needs Is You
EXTD=
EXTT0=
EXTT1=
EXTT2=
EXTT3=
EXTT4=
EXTT5=
EXTT6=
EXTT7=
EXTT8=
EXTT9=
EXTT10=
EXTT11=
EXTT12=
EXTT13=
EXTT14=
EXTT15=
EXTT16=
EXTT17=
EXTT18=
EXTT19=
PLAYORDER=
